# xmcd
#
# Track frame offsets: 
#        150
#        10904
#        23323
#        29400
#        37750
#        54247
#        65080
#        77075
#        92496
#        101427
#        113600
#        130233
#        143146
#        154603
#        166083
#        187030
#        194259
#
# Disc length: 2706 seconds
#
# Revision: 0
# Processed by: cddbd v1.5.2PL0 Copyright (c) Steve Scherf et al.
# Submitted via: ExactAudioCopy v0.99pb4
#
DISCID=c70a9011
DTITLE=Replacements - Live at the Roxy disc 2
DYEAR=1985
DGENRE=Ambient
TTITLE0=Rock Around the Clock
TTITLE1=Be My Lover
TTITLE2=Don't Ask Why
TTITLE3=Tommy Gets His Tonsils Out
TTITLE4=Johnny's Gonna Die
TTITLE5=All By Myself
TTITLE6=Go
TTITLE7=Answering Machine
TTITLE8=Waitress in the Sky
TTITLE9=Kids Don't Follow
TTITLE10=Takin' Care of Business
TTITLE11=Black Diamond
TTITLE12=Unsatisfied
TTITLE13=Hitchin' a Ride
TTITLE14=Take Me Down to the Hospital
TTITLE15=Run it
TTITLE16=Borstal Breakout
EXTD=
EXTT0=
EXTT1=
EXTT2=
EXTT3=
EXTT4=
EXTT5=
EXTT6=
EXTT7=
EXTT8=
EXTT9=
EXTT10=
EXTT11=
EXTT12=
EXTT13=
EXTT14=
EXTT15=
EXTT16=
PLAYORDER=
